<svg xmlns="http://www.w3.org/2000/svg" xmlns:xlink="http://www.w3.org/1999/xlink" version="1.1" class="marks" width="459" height="347" viewBox="0 0 459 347"><rect width="459" height="347" fill="white"/><g fill="none" stroke-miterlimit="10" transform="translate(53,10)"><g class="mark-group role-frame root" role="graphics-object" aria-roledescription="group mark container"><g transform="translate(0,0)"><path class="background" aria-hidden="true" d="M0.5,0.5h400v300h-400Z" stroke="#ddd"/><g><g class="mark-group role-axis" aria-hidden="true"><g transform="translate(0.5,300.5)"><path class="background" aria-hidden="true" d="M0,0h0v0h0Z" pointer-events="none"/><g><g class="mark-rule role-axis-grid" pointer-events="none"><line transform="translate(269,-300)" x2="0" y2="300" stroke="#ddd" stroke-width="1" opacity="1"/><line transform="translate(206,-300)" x2="0" y2="300" stroke="#ddd" stroke-width="1" opacity="1"/><line transform="translate(331,-300)" x2="0" y2="300" stroke="#ddd" stroke-width="1" opacity="1"/><line transform="translate(144,-300)" x2="0" y2="300" stroke="#ddd" stroke-width="1" opacity="1"/><line transform="translate(81,-300)" x2="0" y2="300" stroke="#ddd" stroke-width="1" opacity="1"/><line transform="translate(19,-300)" x2="0" y2="300" stroke="#ddd" stroke-width="1" opacity="1"/><line transform="translate(393,-300)" x2="0" y2="300" stroke="#ddd" stroke-width="1" opacity="1"/></g></g><path class="foreground" aria-hidden="true" d="" pointer-events="none" display="none"/></g></g><g class="mark-group role-axis" aria-hidden="true"><g transform="translate(0.5,0.5)"><path class="background" aria-hidden="true" d="M0,0h0v0h0Z" pointer-events="none"/><g><g class="mark-rule role-axis-grid" pointer-events="none"><line transform="translate(0,253)" x2="400" y2="0" stroke="#ddd" stroke-width="1" opacity="1"/><line transform="translate(0,227)" x2="400" y2="0" stroke="#ddd" stroke-width="1" opacity="1"/><line transform="translate(0,202)" x2="400" y2="0" stroke="#ddd" stroke-width="1" opacity="1"/><line transform="translate(0,176)" x2="400" y2="0" stroke="#ddd" stroke-width="1" opacity="1"/><line transform="translate(0,151)" x2="400" y2="0" stroke="#ddd" stroke-width="1" opacity="1"/><line transform="translate(0,125)" x2="400" y2="0" stroke="#ddd" stroke-width="1" opacity="1"/><line transform="translate(0,279)" x2="400" y2="0" stroke="#ddd" stroke-width="1" opacity="1"/><line transform="translate(0,100)" x2="400" y2="0" stroke="#ddd" stroke-width="1" opacity="1"/><line transform="translate(0,74)" x2="400" y2="0" stroke="#ddd" stroke-width="1" opacity="1"/><line transform="translate(0,49)" x2="400" y2="0" stroke="#ddd" stroke-width="1" opacity="1"/><line transform="translate(0,23)" x2="400" y2="0" stroke="#ddd" stroke-width="1" opacity="1"/></g></g><path class="foreground" aria-hidden="true" d="" pointer-events="none" display="none"/></g></g><g class="mark-group role-axis" role="graphics-symbol" aria-roledescription="axis" aria-label="X-axis titled 'index' for a linear scale with values from −15 to 305"><g transform="translate(0.5,300.5)"><path class="background" aria-hidden="true" d="M0,0h0v0h0Z" pointer-events="none"/><g><g class="mark-rule role-axis-tick" pointer-events="none"><line transform="translate(269,0)" x2="0" y2="5" stroke="#888" stroke-width="1" opacity="1"/><line transform="translate(206,0)" x2="0" y2="5" stroke="#888" stroke-width="1" opacity="1"/><line transform="translate(331,0)" x2="0" y2="5" stroke="#888" stroke-width="1" opacity="1"/><line transform="translate(144,0)" x2="0" y2="5" stroke="#888" stroke-width="1" opacity="1"/><line transform="translate(81,0)" x2="0" y2="5" stroke="#888" stroke-width="1" opacity="1"/><line transform="translate(19,0)" x2="0" y2="5" stroke="#888" stroke-width="1" opacity="1"/><line transform="translate(393,0)" x2="0" y2="5" stroke="#888" stroke-width="1" opacity="1"/></g><g class="mark-text role-axis-label" pointer-events="none"><text text-anchor="middle" transform="translate(268.5830514164803,15)" font-family="sans-serif" font-size="10px" fill="#000" opacity="1">200</text><text text-anchor="middle" transform="translate(206.17226898049688,15)" font-family="sans-serif" font-size="10px" fill="#000" opacity="1">150</text><text text-anchor="middle" transform="translate(330.9938338524638,15)" font-family="sans-serif" font-size="10px" fill="#000" opacity="1">250</text><text text-anchor="middle" transform="translate(143.7614865445134,15)" font-family="sans-serif" font-size="10px" fill="#000" opacity="1">100</text><text text-anchor="middle" transform="translate(81.35070410852992,15)" font-family="sans-serif" font-size="10px" fill="#000" opacity="1">50</text><text text-anchor="middle" transform="translate(18.93992167254645,15)" font-family="sans-serif" font-size="10px" fill="#000" opacity="1">0</text><text text-anchor="middle" transform="translate(393.40461628844724,15)" font-family="sans-serif" font-size="10px" fill="#000" opacity="1">300</text></g><g class="mark-rule role-axis-domain" pointer-events="none"><line transform="translate(0,0)" x2="400" y2="0" stroke="#888" stroke-width="1" opacity="1"/></g><g class="mark-text role-axis-title" pointer-events="none"><text text-anchor="middle" transform="translate(200,30)" font-family="sans-serif" font-size="11px" font-weight="bold" fill="#000" opacity="1">index</text></g></g><path class="foreground" aria-hidden="true" d="" pointer-events="none" display="none"/></g></g><g class="mark-group role-axis" role="graphics-symbol" aria-roledescription="axis" aria-label="Y-axis titled 'actual, prediction' for a linear scale with values from −0.06 to 0.18"><g transform="translate(0.5,0.5)"><path class="background" aria-hidden="true" d="M0,0h0v0h0Z" pointer-events="none"/><g><g class="mark-rule role-axis-tick" pointer-events="none"><line transform="translate(0,253)" x2="-5" y2="0" stroke="#888" stroke-width="1" opacity="1"/><line transform="translate(0,227)" x2="-5" y2="0" stroke="#888" stroke-width="1" opacity="1"/><line transform="translate(0,202)" x2="-5" y2="0" stroke="#888" stroke-width="1" opacity="1"/><line transform="translate(0,176)" x2="-5" y2="0" stroke="#888" stroke-width="1" opacity="1"/><line transform="translate(0,151)" x2="-5" y2="0" stroke="#888" stroke-width="1" opacity="1"/><line transform="translate(0,125)" x2="-5" y2="0" stroke="#888" stroke-width="1" opacity="1"/><line transform="translate(0,279)" x2="-5" y2="0" stroke="#888" stroke-width="1" opacity="1"/><line transform="translate(0,100)" x2="-5" y2="0" stroke="#888" stroke-width="1" opacity="1"/><line transform="translate(0,74)" x2="-5" y2="0" stroke="#888" stroke-width="1" opacity="1"/><line transform="translate(0,49)" x2="-5" y2="0" stroke="#888" stroke-width="1" opacity="1"/><line transform="translate(0,23)" x2="-5" y2="0" stroke="#888" stroke-width="1" opacity="1"/></g><g class="mark-text role-axis-label" pointer-events="none"><text text-anchor="end" transform="translate(-7,256.0027001721794)" font-family="sans-serif" font-size="10px" fill="#000" opacity="1">−0.02</text><text text-anchor="end" transform="translate(-7,230.471016448368)" font-family="sans-serif" font-size="10px" fill="#000" opacity="1">0.00</text><text text-anchor="end" transform="translate(-7,204.93933272455658)" font-family="sans-serif" font-size="10px" fill="#000" opacity="1">0.02</text><text text-anchor="end" transform="translate(-7,179.40764900074512)" font-family="sans-serif" font-size="10px" fill="#000" opacity="1">0.04</text><text text-anchor="end" transform="translate(-7,153.87596527693364)" font-family="sans-serif" font-size="10px" fill="#000" opacity="1">0.06</text><text text-anchor="end" transform="translate(-7,128.34428155312224)" font-family="sans-serif" font-size="10px" fill="#000" opacity="1">0.08</text><text text-anchor="end" transform="translate(-7,281.53438389599086)" font-family="sans-serif" font-size="10px" fill="#000" opacity="1">−0.04</text><text text-anchor="end" transform="translate(-7,102.8125978293108)" font-family="sans-serif" font-size="10px" fill="#000" opacity="1">0.10</text><text text-anchor="end" transform="translate(-7,77.28091410549938)" font-family="sans-serif" font-size="10px" fill="#000" opacity="1">0.12</text><text text-anchor="end" transform="translate(-7,51.749230381687916)" font-family="sans-serif" font-size="10px" fill="#000" opacity="1">0.14</text><text text-anchor="end" transform="translate(-7,26.217546657876486)" font-family="sans-serif" font-size="10px" fill="#000" opacity="1">0.16</text></g><g class="mark-rule role-axis-domain" pointer-events="none"><line transform="translate(0,300)" x2="0" y2="-300" stroke="#888" stroke-width="1" opacity="1"/></g><g class="mark-text role-axis-title" pointer-events="none"><text text-anchor="middle" transform="translate(-36.302734375,150) rotate(-90) translate(0,-2)" font-family="sans-serif" font-size="11px" font-weight="bold" fill="#000" opacity="1">actual, prediction</text></g></g><path class="foreground" aria-hidden="true" d="" pointer-events="none" display="none"/></g></g><g class="mark-line role-mark layer_0_marks" clip-path="url(#clip1)" role="graphics-object" aria-roledescription="line mark container"><path aria-label="index: 0; actual: 0.015" role="graphics-symbol" aria-roledescription="line mark" d="M18.93992167254645,208.32225365551093L20.18813732126612,215.9817587726524L21.43635296998579,203.21591691074696L22.68456861870546,158.53547039407678L23.932784267425127,11.728288982160729L25.1809999161448,95.9828452707394L26.429215564864467,97.25942945693153L27.677431213584136,94.70626108454725L28.925646862303804,35.98338851978177L30.173862511023476,25.770715030258295L31.422078159743144,121.5145289945503L32.670293808462816,159.8120545802689L33.91850945718248,178.96081737312593L35.16672510590215,195.55641179360325L36.414940754621824,203.21591691074696L37.66315640334149,214.70517458646253L38.91137205206116,219.81151133122427L40.15958770078083,212.15200621408056L41.4078033495005,215.9817587726524L42.65601899822017,223.64126388979614L43.90423464693984,217.25834295884454L45.152450295659506,219.81151133122427L46.40066594437918,232.5773531931297L47.64888159309885,232.57735319313198L48.897097241818514,235.13052156550947L50.145312890538186,230.02418482074998L51.39352853925786,176.4076490007462L52.64174418797752,209.59883784169853L53.8899598366972,204.4925010969391L55.138175485416866,210.8754220278907L56.38639113413654,218.53492714503216L57.6346067828562,223.64126388979614L58.882822431575875,222.36467970360624L60.13103808029554,231.30076900693987L61.37925372901522,228.74760063455787L62.627469377734876,230.02418482074998L63.875685026454555,217.25834295884454L65.12390067517421,227.471016448368L66.37211632389389,238.9602741240813L67.62033197261356,236.40710575170385L68.86854762133324,235.13052156550947L70.1167632700529,232.57735319313198L71.36497891877256,231.30076900693987L72.61319456749223,233.85393737931958L73.86141021621191,235.13052156551174L75.10962586493157,244.06661086884532L76.35784151365125,226.19443226217814L77.60605716237092,232.5773531931297L78.85427281109058,232.5773531931297L80.10248845981025,240.23685831027345L81.35070410852992,219.81151133122654L82.59891975724959,231.30076900693757L83.84713540596925,227.471016448368L85.09535105468893,204.4925010969391L86.3435667034086,214.70517458646253L87.59178235212826,228.74760063455787L88.83999800084793,224.917848075986L90.0882136495676,221.0880955174164L91.33642929828727,227.471016448368L92.58464494700695,232.5773531931297L93.83286059572661,227.471016448368L95.08107624444628,231.30076900693987L96.32929189316594,221.08809551741413L97.57750754188562,238.96027412408355L98.82572319060529,236.40710575170158L100.07393883932497,236.40710575170385L101.32215448804462,227.471016448368L102.57037013676428,210.8754220278907L103.81858578548398,222.364679703604L105.06680143420364,219.81151133122427L106.3150170829233,226.19443226217814L107.56323273164297,227.471016448368L108.81144838036265,230.02418482074998L110.05966402908231,230.0241848207477L111.30787967780198,230.02418482074998L112.55609532652164,235.13052156551174L113.80431097524134,218.53492714503443L115.052526623961,228.74760063455787L116.30074227268065,230.02418482074998L117.54895792140032,222.364679703604L118.79717357012001,215.98175877265467L120.04538921883967,218.53492714503216L121.29360486755934,223.6412638897984L122.541820516279,205.76908528312669L123.79003616499868,204.4925010969391L125.03825181371835,201.93933272455484L126.28646746243801,219.81151133122427L127.53468311115768,221.0880955174164L128.78289875987736,232.5773531931297L130.03111440859703,213.42859040027267L131.27933005731668,231.30076900693987L132.52754570603636,215.9817587726524L133.77576135475604,231.30076900693987L135.0239770034757,224.917848075986L136.27219265219537,231.30076900693987L137.52040830091502,235.13052156551174L138.76862394963473,217.25834295884226L140.01683959835438,230.02418482074998L141.26505524707403,228.74760063455787L142.5132708957937,228.74760063456011L143.7614865445134,232.5773531931297L145.00970219323307,227.471016448368L146.25791784195272,223.64126388979614L147.5061334906724,224.917848075986L148.75434913939208,223.64126388979614L150.00256478811173,231.30076900693987L151.2507804368314,235.13052156551174L152.49899608555106,219.81151133122427L153.74721173427076,235.13052156551174L154.9954273829904,226.19443226217814L156.24364303171006,235.13052156551174L157.49185868042974,233.85393737931958L158.74007432914942,232.57735319313198L159.9882899778691,236.40710575170158L161.23650562658875,230.0241848207477L162.48472127530843,232.57735319313198L163.7329369240281,224.917848075986L164.98115257274776,224.917848075986L166.22936822146744,228.74760063456011L167.4775838701871,233.85393737931958L168.7257995189068,235.13052156551174L169.97401516762645,235.13052156551174L171.2222308163461,217.25834295884454L172.47044646506578,207.0456694693188L173.71866211378546,189.17349086264937L174.96687776250513,172.5778964421743L176.21509341122479,201.93933272455712L177.46330905994446,204.49250109693682L178.71152470866414,215.9817587726524L179.9597403573838,210.8754220278907L181.20795600610347,203.21591691074696L182.45617165482312,205.76908528312893L183.7043873035428,204.49250109693682L184.95260295226248,205.76908528312893L186.20081860098213,223.64126388979614L187.4490342497018,224.917848075986L188.6972498984215,222.36467970360624L189.94546554714117,215.9817587726524L191.19368119586082,221.0880955174164L192.4418968445805,214.70517458646253L193.69011249330018,195.55641179360325L194.93832814201983,218.53492714503443L196.1865437907395,223.64126388979614L197.43475943945916,215.9817587726524L198.68297508817884,217.25834295884226L199.93119073689851,226.19443226217814L201.17940638561817,200.66274853836723L202.42762203433787,233.85393737931958L203.6758376830575,223.64126388979614L204.9240533317772,226.19443226217814L206.17226898049688,227.471016448368L207.4204846292165,223.64126388979614L208.6687002779362,241.5134424964633L209.91691592665583,223.64126388979614L211.16513157537554,223.64126388979614L212.41334722409522,230.02418482074998L213.66156287281487,230.02418482074998L214.90977852153455,226.1944322621759L216.15799417025423,218.53492714503443L217.40620981897388,218.53492714503443L218.65442546769356,241.5134424964633L219.9026411164132,233.85393737932185L221.1508567651329,240.23685831027345L222.39907241385256,228.74760063455787L223.64728806257222,219.81151133122654L224.8955037112919,227.471016448368L226.14371936001157,233.85393737931958L227.39193500873122,230.02418482074998L228.6401506574509,223.64126388979614L229.88836630617055,236.40710575170158L231.13658195489023,231.30076900693987L232.38479760360994,227.471016448368L233.63301325232956,227.471016448368L234.88122890104927,232.5773531931297L236.12944454976895,232.5773531931297L237.37766019848857,213.42859040027267L238.62587584720828,226.19443226217814L239.8740914959279,228.74760063455787L241.1223071446476,231.30076900693987L242.3705227933673,227.471016448368L243.61873844208694,227.471016448368L244.86695409080662,237.68368993789144L246.1151697395263,217.25834295884454L247.36338538824594,219.81151133122427L248.61160103696562,233.85393737932185L249.85981668568527,231.30076900693987L251.10803233440495,231.30076900693987L252.35624798312463,223.64126388979614L253.60446363184428,222.364679703604L254.85267928056396,213.42859040027267L256.10089492928364,246.6197792412273L257.3491105780033,217.25834295884226L258.597326226723,222.36467970360624L259.8455418754426,232.5773531931297L261.0937575241623,230.02418482074998L262.341973172882,226.1944322621759L263.59018882160166,238.96027412408355L264.83840447032134,237.68368993789372L266.086620119041,241.5134424964633L267.33483576776064,226.19443226217814L268.5830514164803,232.5773531931297L269.8312670652,233.85393737932185L271.0794827139197,230.0241848207477L272.32769836263935,222.36467970360624L273.575914011359,233.85393737932185L274.82412966007865,230.0241848207477L276.0723453087984,235.13052156551174L277.320560957518,222.36467970360624L278.5687766062377,228.74760063455787L279.8169922549573,230.02418482074998L281.065207903677,227.471016448368L282.3134235523967,236.40710575170158L283.56163920111635,223.64126388979614L284.80985484983603,230.02418482074998L286.0580704985557,227.471016448368L287.3062861472754,231.30076900693987L288.55450179599507,218.53492714503216L289.8027174447147,218.53492714503443L291.05093309343437,166.1949755112205L292.29914874215405,152.15254946312518L293.5473643908737,148.32279690455104L294.7955800395934,170.02472806979233L296.0437956883131,184.06715411788994L297.2920113370327,198.10958016598522L298.5402269857524,207.0456694693188L299.78844263447206,223.64126388979614L301.03665828319174,208.3222536555087L302.2848739319114,213.42859040027267L303.53308958063104,193.00324342122127L304.7813052293507,222.36467970360624L306.0295208780704,222.36467970360624L307.2777365267901,217.25834295884226L308.52595217550976,222.36467970360624L309.7741678242294,232.5773531931297L311.02238347294906,231.30076900693987L312.2705991216688,227.471016448368L313.5188147703884,235.13052156551174L314.7670304191081,231.30076900693987L316.0152460678278,223.64126388979614L317.2634617165474,235.13052156551174L318.51167736526713,237.68368993789144L319.75989301398675,237.68368993789372L321.00810866270643,245.34319505503518L322.2563243114261,236.40710575170158L323.5045399601458,246.6197792412273L324.75275560886547,244.06661086884532L326.00097125758515,236.40710575170158L327.2491869063048,230.02418482074998L328.49740255502445,223.64126388979614L329.74561820374413,260.6622052893226L330.9938338524638,242.79002668265542L332.2420495011835,241.5134424964633L333.4902651499031,237.68368993789372L334.7384807986228,244.06661086884532L335.98669644734247,238.96027412408355L337.23491209606215,250.4495317997969L338.4831277447818,219.81151133122427L339.73134339350145,230.02418482074998L340.9795590422211,213.42859040027267L342.2277746909408,210.8754220278907L343.4759903396605,224.917848075986L344.72420598838016,224.917848075986L345.97242163709984,255.55586854456087L347.22063728581946,230.02418482074998L348.4688529345392,232.5773531931297L349.7170685832588,237.68368993789372L350.9652842319785,233.85393737931958L352.2134998806982,232.5773531931297L353.4617155294178,245.34319505503743L354.70993117813754,238.96027412408355L355.9581468268572,244.06661086884532L357.20636247557684,235.13052156550947L358.4545781242965,238.96027412408355L359.7027937730162,230.02418482074998L360.9510094217359,244.06661086884532L362.19922507045555,238.96027412408355L363.4474407191752,224.917848075986L364.69565636789486,246.6197792412273L365.94387201661453,228.74760063455787L367.1920876653342,232.5773531931297L368.4403033140539,242.79002668265542L369.6885189627735,223.64126388979614L370.9367346114932,256.83245273075073L372.1849502602129,236.40710575170385L373.43316590893255,244.06661086884532L374.68138155765223,244.06661086884532L375.9295972063719,251.72611598598905L377.17781285509153,250.4495317997969L378.42602850381127,245.34319505503743L379.6742441525309,242.79002668265315L380.92245980125057,255.55586854456087L382.17067544997025,245.34319505503743L383.41889109868987,238.9602741240813L384.6671067474096,215.98175877265467L385.9153223961293,245.34319505503518L387.1635380448489,223.64126388979614L388.4117536935686,274.7046313374202L389.65996934228826,244.06661086884532L390.90818499100794,250.4495317997969L392.1564006397276,233.85393737932185" stroke="#4c78a8" stroke-width="2"/></g><g class="mark-line role-mark layer_1_marks" clip-path="url(#clip2)" role="graphics-object" aria-roledescription="line mark container" pointer-events="none"><path aria-label="index: 0; prediction: −0.00448868563399" role="graphics-symbol" aria-roledescription="line mark" d="M18.93992167254645,233.20120154549682L20.18813732126612,235.59787092084247L21.43635296998579,245.52523225046065L22.68456861870546,86.9595001229508L23.932784267425127,229.4324853010012L25.1809999161448,136.25101709899243L26.429215564864467,201.14374213888345L27.677431213584136,227.0977849742271L28.925646862303804,194.0499484731895L30.173862511023476,209.8451964330388L31.422078159743144,215.66110978957238L32.670293808462816,226.9700185815035L33.91850945718248,226.69264548866002L35.16672510590215,229.75514760612793L36.414940754621824,232.7756597411996L37.66315640334149,234.2899390858301L38.91137205206116,236.72700589638868L40.15958770078083,237.83423636330843L41.4078033495005,239.76841374853393L42.65601899822017,238.80835211835262L43.90423464693984,239.5762701666492L45.152450295659506,240.23353620572615L46.40066594437918,240.7929464918984L47.64888159309885,240.8200263330287L48.897097241818514,240.8200263330287L50.145312890538186,226.68346114600155L51.39352853925786,232.6623338696319L52.64174418797752,212.7706229793992L53.8899598366972,238.6982327415616L55.138175485416866,238.634735347037L56.38639113413654,238.37598417769635L57.6346067828562,240.32291739623997L58.882822431575875,240.8200263330287L60.13103808029554,240.8200263330287L61.37925372901522,240.8200263330287L62.627469377734876,240.7811655661505L63.875685026454555,240.8200263330287L65.12390067517421,240.8200263330287L66.37211632389389,240.8200263330287L67.62033197261356,240.8823455160873L68.86854762133324,240.72011376293315L70.1167632700529,240.96820871696667L71.36497891877256,241.13706270812827L72.61319456749223,241.21969920273253L73.86141021621191,241.29274236906355L75.10962586493157,241.3451698070195L76.35784151365125,241.45717955336738L77.60605716237092,241.45193407507494L78.85427281109058,241.26299698796686L80.10248845981025,238.4034765711765L81.35070410852992,228.22268682976872L82.59891975724959,241.76135547092179L83.84713540596925,217.2224646862718L85.09535105468893,233.8139535427L86.3435667034086,240.89620941508275L87.59178235212826,240.32023758933354L88.83999800084793,240.8200263330287L90.0882136495676,240.8200263330287L91.33642929828727,240.8200263330287L92.58464494700695,240.8200263330287L93.83286059572661,240.8200263330287L95.08107624444628,240.8200263330287L96.32929189316594,240.83854244339278L97.57750754188562,240.9040764436098L98.82572319060529,242.72923300642822L100.07393883932497,230.40914057137465L101.32215448804462,237.56080807938935L102.57037013676428,241.83208739296435L103.81858578548398,234.6702523123393L105.06680143420364,242.56225630679512L106.3150170829233,242.83188839574873L107.56323273164297,242.69966477317055L108.81144838036265,241.65212064441397L110.05966402908231,242.77597863550847L111.30787967780198,242.83998369531656L112.55609532652164,240.95103726570244L113.80431097524134,241.36722292960476L115.052526623961,241.73537656199883L116.30074227268065,240.8200263330287L117.54895792140032,240.479714634146L118.79717357012001,241.95046019457544L120.04538921883967,241.10807704158935L121.29360486755934,238.13219902847024L122.541820516279,229.04978652322416L123.79003616499868,236.71496994908736L125.03825181371835,233.46271931229586L126.28646746243801,235.73549874142114L127.53468311115768,237.3558171179878L128.78289875987736,237.90597172680137L130.03111440859703,239.52296293405675L131.27933005731668,240.19118241635854L132.52754570603636,240.8200263330287L133.77576135475604,240.8200263330287L135.0239770034757,240.8200263330287L136.27219265219537,234.89273870343536L137.52040830091502,240.8200263330287L138.76862394963473,240.8200263330287L140.01683959835438,240.8200263330287L141.26505524707403,240.8200263330287L142.5132708957937,240.8200263330287L143.7614865445134,240.8200263330287L145.00970219323307,240.8200263330287L146.25791784195272,231.13649533128014L147.5061334906724,240.8200263330287L148.75434913939208,240.8200263330287L150.00256478811173,240.8200263330287L151.2507804368314,240.8200263330287L152.49899608555106,240.8200263330287L153.74721173427076,240.8200263330287L154.9954273829904,240.8200263330287L156.24364303171006,240.8200263330287L157.49185868042974,240.8200263330287L158.74007432914942,240.8200263330287L159.9882899778691,240.82352411116474L161.23650562658875,240.82721330407983L162.48472127530843,240.84782784354326L163.7329369240281,240.86093559471598L164.98115257274776,240.8200263330287L166.22936822146744,240.89293990798754L167.4775838701871,241.29656234226243L168.7257995189068,241.37370012038835L169.97401516762645,239.71840812365184L171.2222308163461,241.4046320353327L172.47044646506578,209.05390438129044L173.71866211378546,184.25436254644958L174.96687776250513,225.04105219613194L176.21509341122479,231.2721406416475L177.46330905994446,234.6115723879056L178.71152470866414,237.48892172411425L179.9597403573838,235.96708981809374L181.20795600610347,235.31938738449827L182.45617165482312,237.83342552554885L183.7043873035428,236.8286685444639L184.95260295226248,236.98889282026158L186.20081860098213,237.5325631048215L187.4490342497018,238.37433753503205L188.6972498984215,239.0795999382671L189.94546554714117,239.5125361787021L191.19368119586082,239.7925807560703L192.4418968445805,227.51479217609406L193.69011249330018,239.59218493827717L194.93832814201983,239.8677068956489L196.1865437907395,240.00090542579727L197.43475943945916,239.38249302012852L198.68297508817884,239.76031369331943L199.93119073689851,240.3494550936483L201.17940638561817,240.8200263330287L202.42762203433787,240.8200263330287L203.6758376830575,240.8200263330287L204.9240533317772,240.8200263330287L206.17226898049688,240.8200263330287L207.4204846292165,240.8200263330287L208.6687002779362,240.8200263330287L209.91691592665583,240.8200263330287L211.16513157537554,240.8200263330287L212.41334722409522,240.8200263330287L213.66156287281487,240.8200263330287L214.90977852153455,240.90941346810087L216.15799417025423,240.8200263330287L217.40620981897388,240.8200263330287L218.65442546769356,240.8200263330287L219.9026411164132,240.8200263330287L221.1508567651329,240.8200263330287L222.39907241385256,240.8200263330287L223.64728806257222,240.8200263330287L224.8955037112919,240.8370289588356L226.14371936001157,240.92140126447953L227.39193500873122,240.94570380794636L228.6401506574509,240.96440895526615L229.88836630617055,241.0262549514797L231.13658195489023,240.08019037840106L232.38479760360994,240.8200263330287L233.63301325232956,240.8200263330287L234.88122890104927,240.85191413295647L236.12944454976895,242.31193452120186L237.37766019848857,240.8200263330287L238.62587584720828,240.8200263330287L239.8740914959279,240.8200263330287L241.1223071446476,240.8200263330287L242.3705227933673,240.8200263330287L243.61873844208694,240.86106756391146L244.86695409080662,240.8200263330287L246.1151697395263,240.8200263330287L247.36338538824594,240.8200263330287L248.61160103696562,240.8200263330287L249.85981668568527,240.8200263330287L251.10803233440495,240.8200263330287L252.35624798312463,240.8200263330287L253.60446363184428,241.2872174965284L254.85267928056396,240.8200263330287L256.10089492928364,240.8200263330287L257.3491105780033,240.8200263330287L258.597326226723,240.8200263330287L259.8455418754426,240.8200263330287L261.0937575241623,240.8200263330287L262.341973172882,240.93220014918717L263.59018882160166,240.8457852932925L264.83840447032134,240.9470841343964L266.086620119041,241.01084071166525L267.33483576776064,241.0896132433388L268.5830514164803,241.09330243625388L269.8312670652,241.1139169757173L271.0794827139197,241.12702472689003L272.32769836263935,240.28190113250227L273.575914011359,240.8200263330287L274.82412966007865,241.05749360563513L276.0723453087984,241.0294127008779L277.320560957518,240.8434776157391L278.5687766062377,241.04989646005748L279.8169922549573,240.8200263330287L281.065207903677,241.2112638744268L282.3134235523967,241.23783248353857L283.56163920111635,245.56413700707066L284.80985484983603,241.2301901593174L286.0580704985557,241.15363613682192L287.3062861472754,240.8200263330287L288.55450179599507,240.8200263330287L289.8027174447147,201.77860670425548L291.05093309343437,219.14424291168044L292.29914874215405,212.4311458965096L293.5473643908737,216.71078088130835L294.7955800395934,224.25402833728245L296.0437956883131,229.71508247172702L297.2920113370327,233.85428023766852L298.5402269857524,235.96855396281657L299.78844263447206,237.72253216725997L301.03665828319174,236.79881556686104L302.2848739319114,236.1285571010434L303.53308958063104,230.81805485149712L304.7813052293507,235.347318486385L306.0295208780704,238.51088998500433L307.2777365267901,240.29540122452644L308.52595217550976,240.8200263330287L309.7741678242294,240.8200263330287L311.02238347294906,240.8200263330287L312.2705991216688,240.8200263330287L313.5188147703884,240.85745683916667L314.7670304191081,240.9586237110751L316.0152460678278,241.01487231114157L317.2634617165474,241.17419598634845L318.51167736526713,241.3391182466141L319.75989301398675,240.8200263330287L321.00810866270643,241.49611403276919L322.2563243114261,241.63702027728064L323.5045399601458,241.93355505952556L324.75275560886547,241.74839038914953L326.00097125758515,240.00148561469274L327.2491869063048,238.92167680100863L328.49740255502445,240.85195574486494L329.74561820374413,240.85446553740243L330.9938338524638,240.89585036375814L332.2420495011835,241.26528088728688L333.4902651499031,241.38128775467266L334.7384807986228,243.0404032913431L335.98669644734247,241.06806184147862L337.23491209606215,240.8200263330287L338.4831277447818,232.84159975475228L339.73134339350145,241.8112005927283L340.9795590422211,241.76509459812706L342.2277746909408,241.5323294711794L343.4759903396605,241.99785853616308L344.72420598838016,242.9810884880771L345.97242163709984,242.68180850878386L347.22063728581946,242.77957152657822L348.4688529345392,236.33336615895928L349.7170685832588,243.48776340817062L350.9652842319785,243.7170854469191L352.2134998806982,241.9327454106776L353.4617155294178,242.16906538352157L354.70993117813754,242.40729593742083L355.9581468268572,243.05598397879152L357.20636247557684,244.37386997676927L358.4545781242965,242.67992883943202L359.7027937730162,242.6245945124405L360.9510094217359,243.03952587452991L362.19922507045555,243.1253224963557L363.4474407191752,242.9063642006433L364.69565636789486,243.03626587872805L365.94387201661453,243.18192182536515L367.1920876653342,243.25687557275145L368.4403033140539,243.33182813122608L369.6885189627735,243.40869127075598L370.9367346114932,243.50057155360227L372.1849502602129,243.5568189647571L373.43316590893255,243.59231867834137L374.68138155765223,243.60911443351753L375.9295972063719,243.67655782587818L377.17781285509153,243.38895652592913L378.42602850381127,242.39355806306247L379.6742441525309,243.6987750182741L380.92245980125057,243.6858444149403L382.17067544997025,243.74433649133L383.41889109868987,234.36718446046225L384.6671067474096,243.51045616523496L385.9153223961293,243.14300042399174L387.1635380448489,242.90685522116343L388.4117536935686,242.06363031871427L389.65996934228826,243.1360013009846L390.90818499100794,243.10749952149578L392.1564006397276,243.3433784081098" stroke="orange" stroke-width="2"/></g></g><path class="foreground" aria-hidden="true" d="" display="none"/></g></g></g><defs><clipPath id="clip1"><rect x="0" y="0" width="400" height="300"/></clipPath><clipPath id="clip2"><rect x="0" y="0" width="400" height="300"/></clipPath></defs></svg>